<svg  xmlns="http://www.w3.org/2000/svg" width="200" height="99.5" viewBox="0 0 200 99.5"><linearGradient id="a" gradientUnits="userSpaceOnUse" x1="100" y1="93.516" x2="100" y2="-6" gradientTransform="translate(0 6)"><stop offset="0" stop-color="#57c959"/><stop offset="1" stop-color="#1bb01e"/></linearGradient><path fill="url(#a)" d="M200 36.3V17.9h-21.1V0h-26.6v6c0 4.3-3.5 7.8-7.8 7.8h-89c-4.3 0-7.8-3.5-7.8-7.8V0H21v17.9H0v18.4h21.1v6.5H0v18.4h21.7c3.7 21.7 22.7 38.3 45.5 38.3 12.8 0 24.4-5.3 32.8-13.7 8.4 8.5 20 13.7 32.8 13.7 22.7 0 41.7-16.6 45.5-38.3H200V42.8h-21.1v-6.5H200zM67.2 72.8c-10.7 0-19.5-8.8-19.5-19.5V40.4h39v12.9c-.1 10.8-8.8 19.5-19.5 19.5zm85.1-19.4c0 10.7-8.8 19.5-19.5 19.5s-19.5-8.8-19.5-19.5v-13h39v13z"/></svg>